<?xml version="1.0" standalone="no"?>
<!DOCTYPE svg PUBLIC "-//W3C//DTD SVG 20010904//EN"
 "http://www.w3.org/TR/2001/REC-SVG-20010904/DTD/svg10.dtd">
<svg version="1.0" xmlns="http://www.w3.org/2000/svg"
 width="263.000000pt" height="162.000000pt" viewBox="0 0 263.000000 162.000000"
 preserveAspectRatio="xMidYMid meet">
<metadata>
Created by potrace 1.10, written by Peter Selinger 2001-2011
</metadata>
<g transform="translate(0.000000,162.000000) scale(0.100000,-0.100000)"
fill="#000000" stroke="none">
<path d="M115 1601 c-48 -22 -79 -54 -100 -103 -13 -32 -15 -123 -15 -690 0
-613 2 -655 19 -693 22 -48 54 -79 103 -100 33 -13 172 -15 1195 -15 1104 0
1160 1 1198 19 48 22 79 54 100 103 13 32 15 123 15 688 0 565 -2 656 -15 688
-21 49 -52 81 -100 103 -38 18 -93 19 -1200 19 -1107 0 -1162 -1 -1200 -19z
m2367 -128 c17 -15 18 -49 18 -661 0 -587 -2 -647 -17 -664 -15 -17 -65 -18
-1166 -18 -1056 0 -1152 1 -1169 17 -17 15 -18 49 -18 661 0 587 2 647 17 664
15 17 65 18 1166 18 1056 0 1152 -1 1169 -17z"/>
<path d="M380 810 l0 -430 125 0 125 0 2 245 3 245 120 -151 c66 -83 123 -153
127 -155 3 -2 62 66 130 151 l123 154 3 -244 2 -245 125 0 125 0 0 430 0 430
-127 -1 -128 0 -123 -155 c-90 -113 -127 -153 -135 -145 -7 5 -64 75 -127 155
l-115 145 -127 1 -128 0 0 -430z"/>
<path d="M1830 1020 l0 -220 -121 0 c-70 0 -119 -4 -117 -9 6 -17 359 -401
368 -401 9 0 362 384 368 401 2 5 -47 9 -117 9 l-121 0 0 220 0 220 -130 0
-130 0 0 -220z"/>
</g>
</svg>
